<svg width="127" height="128" viewBox="0 0 127 128" fill="none" xmlns="http://www.w3.org/2000/svg">
<path d="M32.5 8.02724C21 14.0272 7 27.0001 2 45.0272H16.5C16.5 45.0272 17.5 42.5001 21 36.5001C24.5 31.5001 28 28.0001 30.5 26.0001C33 24.0001 37.5 20.5001 46 17.5001C54.5 14.5001 56.5 15.0001 63 15.0001C69.5 15.0001 79 17.5001 86 21.0001C93 24.5001 94.5 27.0001 99.5 32.0001C104 37.5001 106.5 41.5001 108.5 47.5001C112 61.0001 112 61.5001 112 66.0001C111 82.0001 106.5 87.5001 106.5 87.5001V110C106.5 110 117 99.0272 121 89.0272C125 79.0273 124.831 78.5564 125.5 67.5273C126.037 58.6821 123.613 49.4778 122.5 45.0272C120 35.0272 108.5 19.0001 99.5 13.0001C90.5 7.00011 77.5 0.527243 64.5 1.02724C51.5 1.52724 44 2.02724 32.5 8.02724Z" fill="black" stroke="black"/>
<path d="M23.232 122.152C20.032 122.152 16.992 121.224 14.112 119.368C11.296 117.448 8.992 114.792 7.2 111.4C5.472 107.944 4.608 103.944 4.608 99.4C4.608 94.856 5.472 90.888 7.2 87.496C8.992 84.04 11.296 81.384 14.112 79.528C16.928 77.608 19.936 76.648 23.136 76.648C26.144 76.648 28.768 77.288 31.008 78.568C33.312 79.848 34.976 81.448 36 83.368H38.304L36.384 97.96C36.384 91.688 35.232 87.112 32.928 84.232C30.688 81.352 27.84 79.912 24.384 79.912C22.592 79.912 21.152 80.456 20.064 81.544C18.976 82.568 18.176 84.488 17.664 87.304C17.152 90.12 16.896 94.184 16.896 99.496C16.896 104.744 17.12 108.776 17.568 111.592C18.08 114.408 18.88 116.328 19.968 117.352C21.056 118.376 22.496 118.888 24.288 118.888C27.744 118.888 30.624 117.448 32.928 114.568C35.232 111.624 36.384 107.048 36.384 100.84L38.304 115.432H36C34.976 117.352 33.344 118.952 31.104 120.232C28.864 121.512 26.24 122.152 23.232 122.152ZM36.384 121V118.6H53.472V121H36.384ZM36.384 119.56V50.152H46.944V119.56H36.384ZM26.88 51.016V48.616H46.944V51.016H26.88ZM59.2665 119.56L58.9785 117.64L84.7065 78.76H93.7305L95.0745 81.16L70.0185 119.56H59.2665ZM58.9785 121V117.64L59.7465 118.6H80.2905C83.8745 118.6 86.9145 117.448 89.4105 115.144C91.9065 112.84 93.2505 109.384 93.4425 104.776L93.5385 103.24H95.9385V121H58.9785ZM61.0905 94.6V77.8H95.0745V81.16L94.3065 80.2H76.7385C73.9865 80.2 71.6185 80.872 69.6345 82.216C67.7145 83.496 66.2105 85.224 65.1225 87.4C64.0985 89.576 63.5545 91.976 63.4905 94.6H61.0905Z" fill="black"/>
</svg>
