<svg width="362" height="82" viewBox="0 0 362 82" fill="none" xmlns="http://www.w3.org/2000/svg">
<path d="M2.84 80C1.12267 80 0.264 79.3653 0.264 78.096V77.76C0.264 77.0133 0.973333 75.856 2.392 74.288C3.88533 72.6453 4.632 70.9653 4.632 69.248V11.232C4.632 9.51466 3.88533 7.872 2.392 6.30399C0.973333 4.66133 0.264 3.46666 0.264 2.71999V2.272C0.264 1.07733 1.12267 0.479996 2.84 0.479996H28.376C43.0107 0.479996 54.7333 4.21333 63.544 11.68C72.3547 19.1467 76.76 28.704 76.76 40.352C76.76 52.2987 72.7653 61.8933 64.776 69.136C56.8613 76.3787 46.4827 80 33.64 80H2.84ZM29.608 73.168H35.32C42.3387 73.168 48.0507 70.8907 52.456 66.336C56.936 61.7813 59.176 55.5093 59.176 47.52C59.176 36.3947 56.152 26.912 50.104 19.072C44.1307 11.232 36.7387 7.31199 27.928 7.31199H25.8C22.8133 7.31199 21.32 8.87999 21.32 12.016V63.536C21.32 66.5973 22.0293 68.9867 23.448 70.704C24.9413 72.3467 26.9947 73.168 29.608 73.168ZM133.752 68.8C133.976 70.5173 134.387 71.8987 134.984 72.944C135.656 73.9893 136.328 74.6613 137 74.96C137.672 75.184 138.27 75.4827 138.792 75.856C139.315 76.2293 139.576 76.752 139.576 77.424C139.576 79.5893 135.992 80.672 128.824 80.672C125.539 80.672 123.112 80.2613 121.544 79.44C120.051 78.544 119.155 76.9387 118.856 74.624C115.944 78.9547 110.979 81.12 103.96 81.12C97.6883 81.12 92.6109 79.664 88.7283 76.752C84.8456 73.84 82.9043 69.6587 82.9043 64.208C82.8296 58.832 84.7336 54.6507 88.6163 51.664C92.4989 48.6773 97.3523 47.184 103.176 47.184C108.104 47.184 112.174 48.304 115.384 50.544L115.272 49.2C114.526 42.1067 113.48 37.104 112.136 34.192C110.792 31.28 108.515 29.824 105.304 29.824C103.288 29.824 101.646 30.5707 100.376 32.064C99.1069 33.5573 98.2109 35.2 97.6883 36.992C97.1656 38.784 96.3069 40.4267 95.1123 41.92C93.9176 43.4133 92.3869 44.16 90.5203 44.16C88.5043 44.16 86.8616 43.6 85.5923 42.48C84.3976 41.2853 83.8003 39.7547 83.8003 37.888C83.8003 34.0053 85.8536 30.9067 89.9603 28.592C94.1416 26.2773 99.2563 25.12 105.304 25.12C112.547 25.12 118.483 27.1733 123.112 31.28C127.742 35.3867 130.467 40.9867 131.288 48.08L133.752 68.8ZM108.888 76.192C111.352 76.192 113.331 75.184 114.824 73.168C116.318 71.0773 116.99 68.7253 116.84 66.112L116.504 62.192C116.206 58.9813 115.235 56.5173 113.592 54.8C112.024 53.0827 110.046 52.224 107.656 52.224C105.267 52.224 103.288 53.0827 101.72 54.8C100.227 56.5173 99.4803 58.7947 99.4803 61.632C99.4803 65.664 100.339 69.0987 102.056 71.936C103.848 74.7733 106.126 76.192 108.888 76.192ZM192.567 63.088C194.508 63.088 195.218 64.1707 194.695 66.336L191.447 77.424C190.924 79.1413 189.991 80 188.647 80H144.967C144.295 80 143.66 79.776 143.063 79.328C142.54 78.8053 142.279 78.208 142.279 77.536V76.416C142.279 75.6693 142.988 74.288 144.407 72.272L172.967 30.72H159.863C157.922 30.72 156.092 31.6907 154.375 33.632C152.732 35.4987 151.164 37.4027 149.671 39.344C148.252 41.2107 146.796 42.144 145.303 42.144H144.631C143.66 42.144 142.988 41.808 142.615 41.136C142.242 40.3893 142.242 39.4933 142.615 38.448L145.415 29.376C145.863 28.1813 146.311 27.36 146.759 26.912C147.207 26.464 147.954 26.24 148.999 26.24H189.095C189.842 26.24 190.439 26.464 190.887 26.912C191.335 27.36 191.559 27.8827 191.559 28.48V29.6C191.559 30.1973 190.588 31.952 188.647 34.864L160.423 75.52H175.767C177.559 75.52 179.276 74.8853 180.919 73.616C182.562 72.272 183.868 70.8533 184.839 69.36C185.884 67.792 187.042 66.3733 188.311 65.104C189.58 63.76 190.775 63.088 191.895 63.088H192.567ZM253.831 68.576C253.831 70.592 254.092 72.1227 254.615 73.168C255.212 74.1387 255.847 74.6987 256.519 74.848C257.191 74.9227 257.788 75.1467 258.311 75.52C258.908 75.8933 259.207 76.528 259.207 77.424C259.207 79.5893 255.884 80.672 249.239 80.672C245.954 80.672 243.49 80.1493 241.847 79.104C240.279 77.984 239.42 76.08 239.271 73.392C236.135 78.544 230.722 81.12 223.031 81.12C216.983 81.12 211.98 79.104 208.023 75.072C204.14 70.9653 202.199 65.216 202.199 57.824V38.896C202.199 37.0293 201.452 35.312 199.959 33.744C198.54 32.1013 197.831 30.9813 197.831 30.384V30.048C197.831 28.704 198.615 27.92 200.183 27.696L214.295 25.568C217.356 25.1947 218.887 25.8667 218.887 27.584L218.551 59.504C218.551 69.6587 221.65 74.736 227.847 74.736C230.61 74.736 232.887 73.5413 234.679 71.152C236.546 68.688 237.479 65.5147 237.479 61.632V38.896C237.479 37.0293 236.732 35.312 235.239 33.744C233.746 32.1013 232.999 30.9813 232.999 30.384V30.048C232.999 28.704 233.746 27.92 235.239 27.696L249.575 25.568C252.412 25.2693 253.831 25.9413 253.831 27.584V68.576ZM357.651 69.136C357.8 70.928 358.509 72.608 359.779 74.176C361.048 75.744 361.683 76.9387 361.683 77.76V78.208C361.683 79.4773 360.861 80.112 359.219 80.112H339.843C338.125 80.112 337.267 79.4773 337.267 78.208V77.76C337.267 77.0133 337.939 75.856 339.283 74.288C340.701 72.72 341.336 71.04 341.187 69.248L340.067 48.752C339.768 42.5547 338.835 38.1493 337.267 35.536C335.699 32.848 333.384 31.504 330.323 31.504C327.709 31.504 325.581 32.5867 323.939 34.752C322.296 36.9173 321.4 39.7173 321.251 43.152C321.549 44.6453 321.699 46.4373 321.699 48.528V69.248C321.699 71.04 322.333 72.72 323.603 74.288C324.947 75.856 325.619 77.0133 325.619 77.76V78.208C325.619 79.4773 324.797 80.112 323.155 80.112H303.779C302.061 80.112 301.203 79.4773 301.203 78.208V77.76C301.203 77.0133 301.875 75.856 303.219 74.288C304.563 72.72 305.235 71.04 305.235 69.248V47.408C305.235 42.3307 304.339 38.4107 302.547 35.648C300.755 32.8853 298.403 31.504 295.491 31.504C292.504 31.504 290.152 32.6613 288.435 34.976C286.717 37.2907 285.859 40.2773 285.859 43.936V69.248C285.859 71.04 286.643 72.72 288.211 74.288C289.853 75.856 290.675 77.0133 290.675 77.76V78.208C290.675 79.4773 289.816 80.112 288.099 80.112H267.267C265.549 80.112 264.691 79.4773 264.691 78.208V77.76C264.691 77.0133 265.475 75.856 267.043 74.288C268.685 72.72 269.507 71.04 269.507 69.248V43.152C269.507 41.7333 269.059 40.5387 268.163 39.568C267.267 38.5973 266.333 37.776 265.363 37.104C264.467 36.3573 264.019 35.6107 264.019 34.864V34.416C264.019 33.5947 264.803 32.8107 266.371 32.064L280.483 25.568C281.752 24.9707 282.723 24.9333 283.395 25.456C284.067 25.904 284.403 26.7253 284.403 27.92V33.184C287.912 27.808 293.064 25.12 299.859 25.12C308.371 25.12 314.568 28.48 318.451 35.2C319.944 32.064 322.184 29.6 325.171 27.808C328.232 26.016 331.667 25.12 335.475 25.12C341.149 25.12 345.891 27.024 349.699 30.832C353.507 34.5653 355.709 40.688 356.307 49.2L357.651 69.136Z" fill="black"/>
</svg>
